# xmcd CD Database Entry
#
# Track frame offsets:
# 150
# 21552
# 43050
# 67872
# 84742
# 113907
# 139285
# 158510
# 179347
# 200425
# 223047
# 250720
# 272475
# 290380
#
# Disc length: 4122 seconds
#
# Revision: 1
# Processed by: cddbd v1.4PL0 Copyright (c) Steve Scherf et al.
# Submitted via: tcd 2.0b
#
DISCID=cb10180e
DTITLE=GEORGE MICHAEL - Ladies&Gentlemen
DYEAR=1900
DGENRE=
TTITLE0=Outside
TTITLE1=As
TTITLE2=Fastlove
TTITLE3=Too funky
TTITLE4=Freedom 90
TTITLE5=Star people'97
TTITLE6=Killer/Papa was a rollin'stone
TTITLE7=I want your sex (part II)
TTITLE8=The strangest thing 97
TTITLE9=Fantasy
TTITLE10=Spinning the wheel
TTITLE11=I knew you were waiting (for me)
TTITLE12=Faith
TTITLE13=Somebody to love
EXTD=The best of George Michael\n\t\t\t\n\n\n
EXTT0=
EXTT1=
EXTT2=
EXTT3=
EXTT4=
EXTT5=
EXTT6=
EXTT7=
EXTT8=
EXTT9=
EXTT10=
EXTT11=
EXTT12=
EXTT13=
PLAYORDER=
